<svg xmlns="http://www.w3.org/2000/svg" version="1.1" xmlns:xlink="http://www.w3.org/1999/xlink" xmlns:svgjs="http://svgjs.dev/svgjs" width="1500" height="1500" viewBox="0 0 1500 1500"><g transform="matrix(1,0,0,1,-0.3236151603499593,-0.3236151603499593)"><svg viewBox="0 0 343 343" data-background-color="#ffffff" preserveAspectRatio="xMidYMid meet" height="1500" width="1500" xmlns="http://www.w3.org/2000/svg" xmlns:xlink="http://www.w3.org/1999/xlink"><g id="tight-bounds" transform="matrix(1,0,0,1,0.07400000000001228,0.07400000000001228)"><svg viewBox="0 0 342.8515585177538 342.8515585177538" height="342.8515585177538" width="342.8515585177538"><g><svg></svg></g><g><svg viewBox="0 0 342.8515585177538 342.8515585177538" height="342.8515585177538" width="342.8515585177538"><g><path d="M0 171.426c0-94.676 76.75-171.426 171.426-171.426 94.676 0 171.426 76.75 171.426 171.426 0 94.676-76.75 171.426-171.426 171.426-94.676 0-171.426-76.75-171.426-171.426zM171.426 337.206c91.558 0 165.78-74.222 165.78-165.78 0-91.558-74.222-165.78-165.78-165.78-91.558 0-165.78 74.222-165.78 165.78 0 91.558 74.222 165.78 165.78 165.78z" data-fill-palette-color="tertiary" fill="#6575a8" stroke="transparent"></path><ellipse rx="164.56874808852183" ry="164.56874808852183" cx="171.4257792588769" cy="171.4257792588769" fill="#6575a8" stroke="transparent" stroke-width="0" fill-opacity="1" data-fill-palette-color="tertiary"></ellipse></g><g transform="matrix(1,0,0,1,64.84655864529836,89.47217798154234)"><svg viewBox="0 0 213.15844122715708 163.9072025546691" height="163.9072025546691" width="213.15844122715708"><g><svg viewBox="0 0 213.15844122715708 163.9072025546691" height="163.9072025546691" width="213.15844122715708"><g><svg viewBox="0 0 213.15844122715714 163.90720255466914" height="163.9072025546691" width="213.15844122715708"><g transform="matrix(1,0,0,1,0,101.30122680963)"><svg viewBox="0 0 213.15844122715714 62.60597574503916" height="62.60597574503916" width="213.15844122715714"><g id="textblocktransform"><svg viewBox="0 0 213.15844122715714 62.60597574503916" height="62.60597574503916" width="213.15844122715714" id="textblock"><g><svg viewBox="0 0 213.15844122715714 62.60597574503916" height="62.60597574503916" width="213.15844122715714"><g transform="matrix(1,0,0,1,0,0)"><svg width="213.15844122715714" viewBox="1.71 -30.15 104.73 30.759999999999998" height="62.60597574503916" data-palette-color="#ffffff"><path d="M18.19-7.25L18.19-7.25Q18.19-3.56 15.65-1.48 13.11 0.61 8.64 0.61L8.64 0.61Q6.35 0.61 4.41 0.13 2.47-0.34 1.71-0.66L1.71-0.66 1.71-7.3 4.25-7.3 4.86-3.05Q5.62-2.56 6.73-2.11 7.84-1.66 9.3-1.66L9.3-1.66Q11.45-1.66 12.62-2.86 13.79-4.05 13.79-5.54L13.79-5.54Q13.79-7.52 12.38-8.53 10.96-9.55 8.35-10.79L8.35-10.79 7.69-11.11Q4.96-12.4 3.5-13.81 2.05-15.21 2.05-17.46L2.05-17.46Q2.05-20.8 4.39-22.75 6.74-24.71 11.06-24.71L11.06-24.71Q13.26-24.71 14.98-24.3 16.7-23.9 17.46-23.56L17.46-23.56 17.46-17.65 14.84-17.65 14.45-21.14Q13.92-21.56 12.87-21.92 11.82-22.29 10.64-22.29L10.64-22.29Q8.59-22.29 7.59-21.35 6.59-20.41 6.59-18.95L6.59-18.95Q6.59-17.26 7.8-16.27 9.01-15.28 12.18-13.84L12.18-13.84Q14.79-12.65 16.49-11.17 18.19-9.69 18.19-7.25ZM36.55-3.05L36.55-3.05 36.55-1.05Q36.55-1.05 35.61-0.63 34.67-0.22 33.14 0.2 31.61 0.61 29.81 0.61L29.81 0.61Q27 0.61 25.72-0.72 24.44-2.05 24.44-5L24.44-5 24.44-21.61 21.24-21.61 21.24-23.24 24.66-24.85 26.9-30.15 29.1-30.15 29.1-24.1 36.15-24.1 36.15-21.61 29.1-21.61 29.1-7.64Q29.1-4.66 30.1-3.43 31.1-2.2 33.1-2.2L33.1-2.2Q34.57-2.2 35.56-2.62 36.55-3.05 36.55-3.05ZM62.37-12.01L62.37-12.01Q62.37-8.47 60.91-5.6 59.44-2.73 56.77-1.06 54.1 0.61 50.43 0.61L50.43 0.61Q46.8 0.61 44.14-1.05 41.47-2.71 40.03-5.57 38.59-8.42 38.59-12.01L38.59-12.01Q38.59-15.58 40.05-18.46 41.5-21.34 44.2-23.02 46.89-24.71 50.58-24.71L50.58-24.71Q54.32-24.71 56.95-23 59.59-21.29 60.98-18.41 62.37-15.53 62.37-12.01ZM57.17-12.06L57.17-12.06Q57.17-14.79 56.45-17.16 55.73-19.53 54.26-21 52.78-22.46 50.53-22.46L50.53-22.46Q48.21-22.46 46.74-21 45.26-19.53 44.55-17.16 43.84-14.79 43.84-12.06L43.84-12.06Q43.84-9.35 44.56-6.97 45.28-4.59 46.76-3.13 48.24-1.66 50.48-1.66L50.48-1.66Q52.78-1.66 54.26-3.13 55.73-4.59 56.45-6.96 57.17-9.33 57.17-12.06ZM83.12-23.95L83.12-18.99 81.17-18.99Q80.71-19.56 80.06-19.96 79.41-20.36 78.48-20.36L78.48-20.36Q77.29-20.36 76.03-19.53 74.77-18.7 73.48-17.26L73.48-17.26 73.48-3.2Q73.48-2.15 74.53-2.1L74.53-2.1 77.82-1.95 77.82 0 65.32 0 65.32-1.9 67.79-2.1Q68.23-2.15 68.53-2.44 68.84-2.73 68.84-3.2L68.84-3.2 68.84-20.56 65.23-20.56 65.23-22.19 71.43-24.1 73.48-24.1 73.48-19.65Q74.21-20.46 75.31-21.66 76.41-22.85 77.65-23.78 78.9-24.71 80.07-24.71L80.07-24.71Q80.85-24.71 81.76-24.46 82.66-24.22 83.12-23.95L83.12-23.95ZM106.44-5.54L106.44-2.49Q104.34-1.2 101.91-0.29 99.48 0.61 96.94 0.61L96.94 0.61Q93.91 0.61 91.26-0.74 88.61-2.1 86.98-4.86 85.34-7.62 85.34-11.79L85.34-11.79Q85.34-15.7 86.86-18.6 88.37-21.51 91.03-23.11 93.69-24.71 97.08-24.71L97.08-24.71Q101.75-24.71 104.09-21.81 106.44-18.92 106.44-14.45L106.44-14.45Q106.44-14.21 106.44-13.81 106.44-13.4 106.39-13.06L106.39-13.06 90.18-13.06Q90.18-11.16 90.58-9.27 90.98-7.37 91.93-5.83 92.89-4.3 94.5-3.37 96.11-2.44 98.53-2.44L98.53-2.44Q100.67-2.44 102.71-3.43 104.75-4.42 106.44-5.54L106.44-5.54ZM90.44-15.31L101.43-15.31 101.43-16.41Q101.43-18.87 100.25-20.56 99.06-22.24 96.57-22.24L96.57-22.24Q94.11-22.24 92.37-20.39 90.64-18.53 90.44-15.31L90.44-15.31Z" opacity="1" transform="matrix(1,0,0,1,0,0)" fill="#ffffff" class="wordmark-text-0" data-fill-palette-color="quaternary" id="text-0"></path></svg></g></svg></g></svg></g></svg></g><g transform="matrix(1,0,0,1,58.49557552911089,0)"><svg viewBox="0 0 96.16729016893537 86.52145847964412" height="86.52145847964412" width="96.16729016893537"><g><svg xmlns="http://www.w3.org/2000/svg" xmlns:xlink="http://www.w3.org/1999/xlink" version="1.1" x="0" y="0" viewBox="13.321 17 73.358 66" enable-background="new 0 0 100 100" xml:space="preserve" height="86.52145847964412" width="96.16729016893537" class="icon-icon-0" data-fill-palette-color="quaternary" id="icon-0"><g fill="#ffffff" data-fill-palette-color="quaternary"><polygon points="74.11,17 26.046,17 19,20.067 19,30 80,30 80,20.067  " fill="#ffffff" data-fill-palette-color="quaternary"></polygon><path d="M86.679 56L76.915 31H70.98L78.459 56H78.462C78.465 56 78.469 56.354 78.477 56.441 78.217 58.445 76.504 59.907 74.428 59.907 72.261 59.907 70.581 58 70.445 56L64.978 31H59.044L62.227 56C62.09 58 60.362 59.898 58.195 59.898 55.975 59.898 54.115 58 54.059 56L52.996 31H47.089L46.019 56H46.036C45.899 58 44.129 59.898 41.962 59.898 39.741 59.898 37.849 58 37.793 56L40.956 31H35.022L29.554 56C29.417 58 27.737 59.996 25.57 59.996 23.493 59.996 21.78 58.358 21.521 56.351 21.528 56.265 21.533 56 21.535 56H21.54L29.02 31H23.085L13.321 56C13.377 58 14.891 60.154 17.113 60.154 17.934 60.154 19 60.087 19 59.67V83H80V59.769C82 60.125 81.552 60.155 82.308 60.155 84.528 60.154 86.622 58 86.679 56" fill="#ffffff" data-fill-palette-color="quaternary"></path></g></svg></g></svg></g><g></g></svg></g></svg></g></svg></g></svg></g><defs></defs></svg><rect width="342.8515585177538" height="342.8515585177538" fill="none" stroke="none" visibility="hidden"></rect></g></svg></g></svg>